<svg width="27" height="31" viewBox="0 0 27 31" fill="none" xmlns="http://www.w3.org/2000/svg"><path d="M4.49986 9.32353V8.44118C4.49986 7.62235 4.49986 7.21118 4.53986 6.86706C4.72108 5.2419 5.53529 3.72246 6.84378 2.56759C8.15226 1.41273 9.87407 0.693881 11.7159 0.53353C12.1059 0.5 12.5719 0.5 13.4999 0.5C14.4279 0.5 14.8939 0.5 15.2839 0.535294C17.1257 0.695193 18.8477 1.41361 20.1566 2.56816C21.4654 3.72271 22.2801 5.24195 22.4619 6.86706C22.4999 7.21118 22.4999 7.62235 22.4999 8.44118V9.32353M20.4999 18.1471V14.6176M6.49986 18.1471V14.6176M0.5 15.6766C0.5 12.6818 0.5 11.1836 1.554 10.2536C2.608 9.32361 4.306 9.32361 7.7 9.32361H19.3C22.694 9.32361 24.392 9.32361 25.446 10.2536C26.5 11.1836 26.5 12.6818 26.5 15.6766V19.9118C26.5 24.9024 26.5 27.3995 24.742 28.9489C22.986 30.5001 20.156 30.5001 14.5 30.5001H12.5C6.844 30.5001 4.014 30.5001 2.258 28.9489C0.5 27.3995 0.5 24.9024 0.5 19.9118V15.6766Z" stroke="white" stroke-linecap="round"/></svg>
