<svg width="19" height="19" viewBox="0 0 19 19" fill="none" xmlns="http://www.w3.org/2000/svg">
<path d="M2.08333 16.6667H3.56771L13.75 6.48438L12.2656 5L2.08333 15.1823V16.6667ZM0 18.75V14.3229L13.75 0.598958C13.9583 0.407986 14.1885 0.260417 14.4406 0.15625C14.6927 0.0520834 14.9573 0 15.2344 0C15.5115 0 15.7806 0.0520834 16.0417 0.15625C16.3028 0.260417 16.5285 0.416667 16.7187 0.625L18.151 2.08333C18.3594 2.27431 18.5115 2.5 18.6073 2.76042C18.7031 3.02083 18.7507 3.28125 18.75 3.54167C18.75 3.81944 18.7024 4.08437 18.6073 4.33646C18.5122 4.58854 18.3601 4.8184 18.151 5.02604L4.42708 18.75H0ZM12.9948 5.75521L12.2656 5L13.75 6.48438L12.9948 5.75521Z" fill="#3779B2"/>
</svg>
