<svg width="28" height="28" viewBox="0 0 28 28" fill="none" xmlns="http://www.w3.org/2000/svg">
<path d="M9.1001 4.2C8.32572 4.2 7.7001 4.82562 7.7001 5.6V8.4H6.6501C6.06822 8.4 5.6001 8.86812 5.6001 9.45C5.6001 10.0319 6.06822 10.5 6.6501 10.5H7.7001V11.9H6.6501C6.06822 11.9 5.6001 12.3681 5.6001 12.95C5.6001 13.5319 6.06822 14 6.6501 14H7.7001V22.4C7.7001 23.1744 8.32572 23.8 9.1001 23.8C9.87447 23.8 10.5001 23.1744 10.5001 22.4V18.2H14.7001C17.5701 18.2 20.0376 16.4719 21.1182 14H22.7501C23.332 14 23.8001 13.5319 23.8001 12.95C23.8001 12.3681 23.332 11.9 22.7501 11.9H21.6651C21.687 11.6681 21.7001 11.4362 21.7001 11.2C21.7001 10.9637 21.687 10.7319 21.6651 10.5H22.7501C23.332 10.5 23.8001 10.0319 23.8001 9.45C23.8001 8.86812 23.332 8.4 22.7501 8.4H21.1182C20.0376 5.92812 17.5701 4.2 14.7001 4.2H9.1001ZM17.8326 8.4H10.5001V7H14.7001C15.9426 7 17.0626 7.5425 17.8326 8.4ZM10.5001 10.5H18.8432C18.8826 10.7275 18.9001 10.9594 18.9001 11.2C18.9001 11.4406 18.8782 11.6725 18.8432 11.9H10.5001V10.5ZM17.8326 14C17.0626 14.8575 15.947 15.4 14.7001 15.4H10.5001V14H17.8326Z" fill="white"/>
</svg>
