<svg width="32" height="32" viewBox="0 0 16 16" fill="none" xmlns="http://www.w3.org/2000/svg">
<path d="M11.5 4.6875L15.9922 6.9375V13.0469L11.5 15.2969L7 13.0625V10.5547L4.5 11.7969L0 9.5625L0.0078125 3.4375L4.5 1.1875L8.99219 3.4375L9 5.94531L11.5 4.6875ZM14.375 7.24219L11.5 5.8125L8.625 7.24219L11.5 8.67969L14.375 7.24219ZM7.375 3.74219L4.5 2.3125L1.625 3.74219L4.5 5.17969L7.375 3.74219ZM1.00781 4.55469L1 8.9375L4 10.4297V6.04688L1.00781 4.55469ZM5 10.4297L7.00781 9.4375V6.9375L8 6.44531L7.99219 4.55469L5 6.04688V10.4297ZM8.00781 8.05469L8 12.4375L11 13.9297V9.54688L8.00781 8.05469ZM12 13.9297L14.9922 12.4297V8.05469L12 9.54688V13.9297Z" fill="white"/>
</svg>
