<svg width="26" height="26" viewBox="0 0 26 26" fill="none" xmlns="http://www.w3.org/2000/svg">
<path d="M16.2499 22.75V17.3333C16.2499 17.046 16.1357 16.7704 15.9326 16.5673C15.7294 16.3641 15.4539 16.25 15.1665 16.25H10.8332C10.5459 16.25 10.2703 16.3641 10.0672 16.5673C9.864 16.7704 9.74987 17.046 9.74987 17.3333V22.75M19.255 11.1691C19.0292 10.9529 18.7286 10.8323 18.416 10.8323C18.1034 10.8323 17.8028 10.9529 17.577 11.1691C17.0732 11.6496 16.4038 11.9177 15.7077 11.9177C15.0115 11.9177 14.3421 11.6496 13.8384 11.1691C13.6126 10.9533 13.3122 10.8328 12.9999 10.8328C12.6875 10.8328 12.3871 10.9533 12.1614 11.1691C11.6576 11.6499 10.9879 11.9182 10.2915 11.9182C9.59513 11.9182 8.9255 11.6499 8.4217 11.1691C8.19587 10.9529 7.89529 10.8323 7.58266 10.8323C7.27002 10.8323 6.96945 10.9529 6.74362 11.1691C6.25703 11.6335 5.61508 11.9001 4.94271 11.9172C4.27034 11.9343 3.61567 11.7006 3.10611 11.2616C2.59656 10.8226 2.26858 10.2097 2.18602 9.54222C2.10345 8.87472 2.27221 8.20039 2.65945 7.65046L5.7892 3.11779C5.98778 2.82476 6.25514 2.58485 6.56788 2.41904C6.88062 2.25322 7.22922 2.16656 7.5832 2.16663H18.4165C18.7695 2.16649 19.1171 2.25258 19.4292 2.4174C19.7413 2.58223 20.0084 2.8208 20.2073 3.11238L23.3435 7.65371C23.7309 8.20407 23.8994 8.87892 23.8163 9.54677C23.7332 10.2146 23.4045 10.8276 22.8941 11.2663C22.3838 11.705 21.7284 11.9379 21.0556 11.9198C20.3829 11.9016 19.741 11.6336 19.255 11.168" stroke="#1369DA" stroke-width="2" stroke-linecap="round" stroke-linejoin="round"/>
<path d="M4.33301 11.8624V20.5833C4.33301 21.1579 4.56128 21.709 4.96761 22.1153C5.37394 22.5217 5.92504 22.7499 6.49967 22.7499H19.4997C20.0743 22.7499 20.6254 22.5217 21.0317 22.1153C21.4381 21.709 21.6663 21.1579 21.6663 20.5833V11.8624" stroke="#1369DA" stroke-width="2" stroke-linecap="round" stroke-linejoin="round"/>
</svg>
